# xmcd CD database file
#
# Track frame offsets:
#	150
#	37660
#	68870
#	107280
#	151990
#	186650
#
# Disc length: 2802 seconds
#
# Revision: 0
# Processed by: cddbd v1.5.2PL0 Copyright (c) Steve Scherf et al.
# Submitted via: CDex 1.70beta2
#
DISCID=430af006
DTITLE=3 Elementos - Espíritu del momento
DYEAR=2016
DGENRE=Jazz
TTITLE0=Blues for Alice
TTITLE1=Moose the Mooche
TTITLE2=Yard Bird Suite
TTITLE3=Lover man
TTITLE4=Dexterity
TTITLE5=Au privave
EXTD=YEAR: 2016
EXTT0=
EXTT1=
EXTT2=
EXTT3=
EXTT4=
EXTT5=
PLAYORDER=
